<?xml version="1.0" encoding="UTF-8"?>
<svg width="32" height="32" viewBox="0 0 32 32" fill="none" xmlns="http://www.w3.org/2000/svg">
    <!-- Cabello rizado -->
    <path d="M8 12C8 8 12 4 16 4C20 4 24 8 24 12C24 16 22 14 20 15C20 13 19 12 18 13C17 14 19 16 17 17C15 18 16 15 14 16C12 17 14 19 12 18C10 17 12 14 11 13C10 12 9 13 9 15C7 14 8 16 8 12Z" fill="#1B2333"/>
    
    <!-- Lentes wayfarer -->
    <path d="M6 15C6 14 7 13 8 13H13C14 13 15 14 15 15V16C15 17 14 18 13 18H8C7 18 6 17 6 16V15Z" fill="#1B2333"/>
    <path d="M17 15C17 14 18 13 19 13H24C25 13 26 14 26 15V16C26 17 25 18 24 18H19C18 18 17 17 17 16V15Z" fill="#1B2333"/>
    
    <!-- Puente de los lentes -->
    <path d="M15 14.5H17" stroke="#1B2333" stroke-width="1"/>
</svg> 